<svg xmlns="http://www.w3.org/2000/svg" xmlns:xlink="http://www.w3.org/1999/xlink" width="18" height="18" viewBox="0 0 18 18">
  <defs>
    <clipPath id="clip-path">
      <rect id="Rectangle_3273" data-name="Rectangle 3273" width="18" height="18" transform="translate(92 242)" fill="#8d8d8d" stroke="#707070" stroke-width="1"/>
    </clipPath>
  </defs>
  <g id="Mask_Group_160" data-name="Mask Group 160" transform="translate(-92 -242)" clip-path="url(#clip-path)">
    <g id="book" transform="translate(92 243.09)">
      <g id="Group_615" data-name="Group 615" transform="translate(11.672 11.602)">
        <path id="Path_12121" data-name="Path 12121" d="M16.781,14.806V18.5a.528.528,0,0,1-.9.373l-.682-.682-.682.682a.528.528,0,0,1-.9-.373V14.806Z" transform="translate(-13.617 -14.806)" fill="#8d8d8d"/>
      </g>
      <g id="Group_617" data-name="Group 617">
        <path id="Path_12122" data-name="Path 12122" d="M16.916,11.818V1.8a.527.527,0,0,0-.527-.527H12.7a1.584,1.584,0,0,0-1.582,1.582v9.5a2.62,2.62,0,0,1,1.582-.536Z" transform="translate(-1.588 -1.271)" fill="#8d8d8d"/>
        <path id="Path_12123" data-name="Path 12123" d="M3.117,11.818V1.8a.527.527,0,0,1,.527-.527H7.336A1.584,1.584,0,0,1,8.918,2.853v9.5a2.62,2.62,0,0,0-1.582-.536Z" transform="translate(-0.445 -1.271)" fill="#8d8d8d"/>
        <g id="Group_616" data-name="Group 616" transform="translate(0 1.055)">
          <path id="Path_12124" data-name="Path 12124" d="M10.617,13.128a1.579,1.579,0,0,0-.869.713.528.528,0,0,1-.456.262H8.708a.528.528,0,0,1-.456-.262,1.564,1.564,0,0,0-1.361-.792H2.145a.528.528,0,0,1-.527-.527V2.5H.527A.528.528,0,0,0,0,3.029v11.6a.528.528,0,0,0,.527.527h10.09Z" transform="translate(0 -2.502)" fill="#8d8d8d"/>
          <path id="Path_12125" data-name="Path 12125" d="M20.121,2.5h-1.09v10.02a.527.527,0,0,1-.492.526v2.111h1.582a.528.528,0,0,0,.527-.527V3.029A.528.528,0,0,0,20.121,2.5Z" transform="translate(-2.648 -2.502)" fill="#8d8d8d"/>
        </g>
      </g>
    </g>
  </g>
</svg>
