<svg xmlns="http://www.w3.org/2000/svg" xmlns:xlink="http://www.w3.org/1999/xlink" width="32" height="32" viewBox="0 0 32 32">
  <defs>
    <clipPath id="clip-path">
      <rect id="Rectangle_3168" data-name="Rectangle 3168" width="32" height="32" transform="translate(114 182)" fill="#707070" stroke="#707070" stroke-width="1"/>
    </clipPath>
  </defs>
  <g id="Mask_Group_140" data-name="Mask Group 140" transform="translate(-114 -182)" clip-path="url(#clip-path)">
    <g id="question_1_" data-name="question (1)" transform="translate(114 182)">
      <g id="Group_459" data-name="Group 459">
        <g id="Group_458" data-name="Group 458">
          <path id="Path_12091" data-name="Path 12091" d="M13.533,4.616a7,7,0,0,0-4.407,6.49,1.875,1.875,0,0,0,3.751,0A3.224,3.224,0,0,1,16.1,7.879a3.269,3.269,0,0,1,3.23,3.224,3.211,3.211,0,0,1-2.07,3.016,4.721,4.721,0,0,0-2.205,1.723c-.99,1.429-.827,2.635-.827,4.508a1.9,1.9,0,0,0,.052.441.469.469,0,0,0,.912-.22,12.669,12.669,0,0,1-.027-2.07A3.752,3.752,0,0,1,17.6,14.994a4.16,4.16,0,1,0-5.659-3.888.938.938,0,0,1-1.875,0,6.04,6.04,0,1,1,8.207,5.638,1.922,1.922,0,0,0-.891.69c-.425.606-.338.958-.338,2.917a.941.941,0,0,1-.938.937.469.469,0,0,0-.469.469c0,.984,2.342.385,2.344-1.405V18.5a.946.946,0,0,1,.628-.883,6.979,6.979,0,1,0-5.074-13Z" fill="#707070"/>
        </g>
      </g>
      <g id="Group_461" data-name="Group 461">
        <g id="Group_460" data-name="Group 460">
          <path id="Path_12092" data-name="Path 12092" d="M17.7,25.029a1.873,1.873,0,1,0-1.584,2.845A1.866,1.866,0,0,0,17.7,25.029Zm-1.823,1.878a.913.913,0,0,1-.7-.723.935.935,0,1,1,.7.723Z" fill="#707070"/>
        </g>
      </g>
      <g id="Group_463" data-name="Group 463">
        <g id="Group_462" data-name="Group 462">
          <path id="Path_12093" data-name="Path 12093" d="M24.024,2.158A16,16,0,0,0,.8,21.012a15.3,15.3,0,0,0,2.3,4.441l0,0v0l0,0h0a.466.466,0,0,0,.388.106h0a.437.437,0,0,0,.089-.026h0l.011,0h0a.47.47,0,0,0,.192-.707A15.068,15.068,0,1,1,7.173,28.2a.473.473,0,0,0-.5-.032L1.412,31.019a.322.322,0,0,1-.474-.277c0-.112-.114.134,2-3.767a.468.468,0,1,0-.824-.446C-.014,30.454,0,30.322,0,30.742a1.26,1.26,0,0,0,1.858,1.1l5.005-2.71A16,16,0,1,0,24.024,2.158Z" fill="#707070"/>
        </g>
      </g>
    </g>
  </g>
</svg>
