<svg xmlns="http://www.w3.org/2000/svg" xmlns:xlink="http://www.w3.org/1999/xlink" width="32" height="32" viewBox="0 0 32 32">
  <defs>
    <clipPath id="clip-path">
      <rect id="Rectangle_3170" data-name="Rectangle 3170" width="32" height="32" transform="translate(267 182)" fill="#707070" stroke="#707070" stroke-width="1"/>
    </clipPath>
  </defs>
  <g id="Mask_Group_139" data-name="Mask Group 139" transform="translate(-267 -182)" clip-path="url(#clip-path)">
    <g id="identification" transform="translate(267 186.48)">
      <path id="Path_12085" data-name="Path 12085" d="M9.56,11.253A3.447,3.447,0,1,0,6.113,7.807,3.447,3.447,0,0,0,9.56,11.253Zm0-5.553A2.113,2.113,0,1,1,7.447,7.813,2.113,2.113,0,0,1,9.56,5.7Zm0,0" fill="#707070"/>
      <path id="Path_12086" data-name="Path 12086" d="M9.56,12.527a5.173,5.173,0,0,0-3.747,1.567,5.529,5.529,0,0,0-1.547,3.913.669.669,0,0,0,.667.667h9.253a.669.669,0,0,0,.667-.667,5.529,5.529,0,0,0-1.547-3.913A5.172,5.172,0,0,0,9.56,12.527ZM5.647,17.34a4.078,4.078,0,0,1,1.12-2.313,3.927,3.927,0,0,1,5.587,0,4.1,4.1,0,0,1,1.12,2.313Zm0,0" fill="#707070"/>
      <path id="Path_12087" data-name="Path 12087" d="M28.667-.28H3.333A3.335,3.335,0,0,0,0,3.053V19.987A3.335,3.335,0,0,0,3.333,23.32H28.667A3.335,3.335,0,0,0,32,19.987V3.053A3.335,3.335,0,0,0,28.667-.28Zm2,20.267a2.006,2.006,0,0,1-2,2H3.333a2.006,2.006,0,0,1-2-2V3.053a2.006,2.006,0,0,1,2-2H28.667a2.006,2.006,0,0,1,2,2Zm0,0" fill="#707070"/>
      <path id="Path_12088" data-name="Path 12088" d="M27.027,10.853H19.26a.667.667,0,0,0,0,1.333h7.767a.667.667,0,1,0,0-1.333Zm0,0" fill="#707070"/>
      <path id="Path_12089" data-name="Path 12089" d="M27.027,15.12H19.26a.667.667,0,1,0,0,1.333h7.767a.667.667,0,1,0,0-1.333Zm0,0" fill="#707070"/>
      <path id="Path_12090" data-name="Path 12090" d="M27.027,6.587H19.26a.667.667,0,0,0,0,1.333h7.767a.667.667,0,1,0,0-1.333Zm0,0" fill="#707070"/>
    </g>
  </g>
</svg>
