<svg xmlns="http://www.w3.org/2000/svg" xmlns:xlink="http://www.w3.org/1999/xlink" width="18" height="18" viewBox="0 0 18 18">
  <defs>
    <clipPath id="clip-path">
      <rect id="Rectangle_826" data-name="Rectangle 826" width="18" height="18" transform="translate(221 653)" fill="#4b4b4b" stroke="#707070" stroke-width="1"/>
    </clipPath>
  </defs>
  <g id="Mask_Group_81" data-name="Mask Group 81" transform="translate(-221 -653)" clip-path="url(#clip-path)">
    <g id="mail-write" transform="translate(221 653)">
      <path id="Path_2156" data-name="Path 2156" d="M16.9,6.763h-.11L15.019,5.221l-.988.988,1.28,1.113-1.082.846L9,12,3.771,8.168,2.718,7.377,3.979,6.271V4.39L1.253,6.763H1.1a.176.176,0,0,0-.175.176V17.825A.175.175,0,0,0,1.1,18H16.9a.175.175,0,0,0,.175-.175V6.939A.176.176,0,0,0,16.9,6.763ZM15.672,16.6H2.328V8.851L8.9,13.668a.175.175,0,0,0,.208,0l6.568-4.817V16.6h0ZM7.963,2.779H5.829L9.022,0l3.193,2.779H10.089L9.022,1.851ZM5.025,8.406l-.706-.59V3.137h8.824v.226a7.4,7.4,0,0,0-.706.553V3.843H5.025Zm8.839-4.394.08-.08a.529.529,0,0,1,.58-.113l.289-.289.437.437-.285.285a.527.527,0,0,1-.1.6l-4.3,4.305A.527.527,0,0,1,10.1,9.3c-.5.353-.882.514-1,.392s.039-.5.392-1a.526.526,0,0,1,.148-.452l3.817-3.817A7.681,7.681,0,0,0,11.588,6a.184.184,0,0,1-.25,0,.176.176,0,0,1,0-.249C13.01,4.017,13.584,3.917,13.864,4.011Z" fill="#4b4b4b"/>
    </g>
  </g>
</svg>
