<svg xmlns="http://www.w3.org/2000/svg" xmlns:xlink="http://www.w3.org/1999/xlink" width="50" height="50" viewBox="0 0 50 50">
  <defs>
    <clipPath id="clip-path">
      <rect id="Rectangle_776" data-name="Rectangle 776" width="50" height="50" transform="translate(0 -0.027)" fill="#4b4b4b" stroke="#707070" stroke-width="1"/>
    </clipPath>
  </defs>
  <g id="Mask_Group_65" data-name="Mask Group 65" transform="translate(0 0.027)" clip-path="url(#clip-path)">
    <g id="clipboard" transform="translate(5.163 -0.004)">
      <path id="Path_311" data-name="Path 311" d="M35.951,2.149H32.292a.73.73,0,1,0,0,1.46h.454V43.92H5.331V3.61H8.387V5.268a2.315,2.315,0,0,0,2.319,2.305h3.472a4.108,4.108,0,0,0,4.042,3.354h1.636A4.108,4.108,0,0,0,23.9,7.573H27.37a2.315,2.315,0,0,0,2.32-2.305V2.117A2.315,2.315,0,0,0,27.37-.188H10.706A2.315,2.315,0,0,0,8.387,2.117V2.15H2.126A2.924,2.924,0,0,0-.8,5.061V34.367a.732.732,0,0,0,.734.73.732.732,0,0,0,.734-.73V5.061A1.458,1.458,0,0,1,2.126,3.61H3.862V44.65a.732.732,0,0,0,.734.73H33.481a.732.732,0,0,0,.734-.73V3.61h1.736a1.457,1.457,0,0,1,1.46,1.451V46.737a1.457,1.457,0,0,1-1.46,1.452H2.126a1.458,1.458,0,0,1-1.46-1.452V37.807a.733.733,0,0,0-.734-.73.732.732,0,0,0-.734.73v8.929a2.924,2.924,0,0,0,2.929,2.912H35.951a2.923,2.923,0,0,0,2.929-2.912V5.061A2.923,2.923,0,0,0,35.951,2.15ZM9.856,2.117a.849.849,0,0,1,.85-.845H27.37a.849.849,0,0,1,.85.845v3.15a.849.849,0,0,1-.85.845H23.23a.732.732,0,0,0-.734.73,2.635,2.635,0,0,1-2.64,2.624H18.22a2.635,2.635,0,0,1-2.639-2.624.732.732,0,0,0-.734-.73h-4.14a.849.849,0,0,1-.85-.845Zm0,0" transform="translate(0.803 0.188)" fill="#4b4b4b"/>
      <path id="Path_312" data-name="Path 312" d="M36.732,30.839H32.849L30.367,24.1a.736.736,0,0,0-1.4.071L26.3,34.608l-2.574-7.443a.737.737,0,0,0-1.335-.12L20.251,30.84H18.023a.73.73,0,1,0,0,1.46h2.658a.736.736,0,0,0,.641-.373l1.549-2.746L25.711,37.4a.736.736,0,0,0,1.406-.058L29.8,26.822l1.841,5a.734.734,0,0,0,.69.479h4.4a.73.73,0,1,0,0-1.46Zm0,0" transform="translate(-7.536 -10.864)" fill="#4b4b4b"/>
      <path id="Path_313" data-name="Path 313" d="M36.732,59.553H18.023a.73.73,0,1,0,0,1.46H36.732a.73.73,0,1,0,0-1.46Zm0,0" transform="translate(-7.536 -27.539)" fill="#4b4b4b"/>
      <path id="Path_314" data-name="Path 314" d="M36.732,71.555H18.023a.73.73,0,1,0,0,1.46H36.732a.73.73,0,1,0,0-1.46Zm0,0" transform="translate(-7.536 -33.109)" fill="#4b4b4b"/>
    </g>
  </g>
</svg>
