<svg xmlns="http://www.w3.org/2000/svg" xmlns:xlink="http://www.w3.org/1999/xlink" width="51" height="50" viewBox="0 0 51 50">
  <defs>
    <clipPath id="clip-path">
      <rect id="Rectangle_770" data-name="Rectangle 770" width="51" height="50" transform="translate(0 0.324)" fill="#4b4b4b" stroke="#707070" stroke-width="1"/>
    </clipPath>
  </defs>
  <g id="Mask_Group_62" data-name="Mask Group 62" transform="translate(0 -0.324)" clip-path="url(#clip-path)">
    <g id="resume" transform="translate(0.477 0.04)">
      <g id="Group_122" data-name="Group 122">
        <g id="Group_121" data-name="Group 121">
          <path id="Path_259" data-name="Path 259" d="M40.538,14.733a.985.985,0,0,0,.979-.99V2.971A2.958,2.958,0,0,0,38.58,0H2.939A2.958,2.958,0,0,0,0,2.971V47.74a2.958,2.958,0,0,0,2.937,2.971H38.58a2.958,2.958,0,0,0,2.937-2.971v-7.3a.979.979,0,1,0-1.958,0v7.3a.986.986,0,0,1-.979.99H2.939a.986.986,0,0,1-.979-.99V2.971a.986.986,0,0,1,.979-.99H38.58a.986.986,0,0,1,.979.99V13.743A.985.985,0,0,0,40.538,14.733Z" transform="translate(-0.001 0)" fill="#4b4b4b"/>
        </g>
      </g>
      <g id="Group_124" data-name="Group 124" transform="translate(11.75 5.348)">
        <g id="Group_123" data-name="Group 123">
          <path id="Path_260" data-name="Path 260" d="M30.806,9.809a9.13,9.13,0,0,0-6.18,15.735.973.973,0,0,0,.105.1,8.916,8.916,0,0,0,12.15,0,.984.984,0,0,0,.105-.1,9.13,9.13,0,0,0-6.18-15.735Zm0,16.243A6.961,6.961,0,0,1,26.548,24.6a4.868,4.868,0,0,1,8.517,0A6.961,6.961,0,0,1,30.806,26.052ZM29.24,18.525v-.644a1.567,1.567,0,1,1,3.133,0v.644a1.567,1.567,0,1,1-3.133,0Zm7.24,4.624A6.813,6.813,0,0,0,33.595,20.7a3.573,3.573,0,0,0,.737-2.178v-.644a3.525,3.525,0,1,0-7.05,0v.644a3.573,3.573,0,0,0,.737,2.178,6.813,6.813,0,0,0-2.885,2.446,7.05,7.05,0,1,1,11.346,0Z" transform="translate(-21.798 -9.809)" fill="#4b4b4b"/>
        </g>
      </g>
      <g id="Group_126" data-name="Group 126" transform="translate(19.779 43.382)">
        <g id="Group_125" data-name="Group 125">
          <path id="Path_261" data-name="Path 261" d="M42.959,79.559H37.672a.991.991,0,0,0,0,1.981h5.287a.991.991,0,0,0,0-1.981Z" transform="translate(-36.693 -79.559)" fill="#4b4b4b"/>
        </g>
      </g>
      <g id="Group_128" data-name="Group 128" transform="translate(11.162 37.835)">
        <g id="Group_127" data-name="Group 127">
          <path id="Path_262" data-name="Path 262" d="M35.591,69.387h-13.9a.991.991,0,0,0,0,1.981h13.9a.991.991,0,0,0,0-1.981Z" transform="translate(-20.708 -69.387)" fill="#4b4b4b"/>
        </g>
      </g>
      <g id="Group_130" data-name="Group 130" transform="translate(11.162 32.289)">
        <g id="Group_129" data-name="Group 129">
          <path id="Path_263" data-name="Path 263" d="M35.591,59.215h-13.9a.991.991,0,0,0,0,1.981h13.9a.991.991,0,0,0,0-1.981Z" transform="translate(-20.708 -59.215)" fill="#4b4b4b"/>
        </g>
      </g>
      <g id="Group_132" data-name="Group 132" transform="translate(6.979 26.742)">
        <g id="Group_131" data-name="Group 131">
          <path id="Path_264" data-name="Path 264" d="M14.621,49.333a.972.972,0,0,0-1.385,0,1,1,0,0,0,0,1.4.972.972,0,0,0,1.385,0,1,1,0,0,0,0-1.4Z" transform="translate(-12.949 -49.043)" fill="#4b4b4b"/>
        </g>
      </g>
      <g id="Group_134" data-name="Group 134" transform="translate(6.979 32.289)">
        <g id="Group_133" data-name="Group 133">
          <path id="Path_265" data-name="Path 265" d="M14.621,59.505a.972.972,0,0,0-1.385,0,1,1,0,0,0,0,1.4.972.972,0,0,0,1.385,0,1,1,0,0,0,0-1.4Z" transform="translate(-12.949 -59.215)" fill="#4b4b4b"/>
        </g>
      </g>
      <g id="Group_136" data-name="Group 136" transform="translate(6.979 37.835)">
        <g id="Group_135" data-name="Group 135">
          <path id="Path_266" data-name="Path 266" d="M14.621,69.677a.972.972,0,0,0-1.385,0,1,1,0,0,0,0,1.4.972.972,0,0,0,1.385,0,1,1,0,0,0,0-1.4Z" transform="translate(-12.949 -69.387)" fill="#4b4b4b"/>
        </g>
      </g>
      <g id="Group_138" data-name="Group 138" transform="translate(11.162 26.742)">
        <g id="Group_137" data-name="Group 137">
          <path id="Path_267" data-name="Path 267" d="M35.591,49.043h-13.9a.991.991,0,0,0,0,1.981h13.9a.991.991,0,0,0,0-1.981Z" transform="translate(-20.708 -49.043)" fill="#4b4b4b"/>
        </g>
      </g>
      <g id="Group_140" data-name="Group 140" transform="translate(29.138 12.349)">
        <g id="Group_139" data-name="Group 139">
          <path id="Path_268" data-name="Path 268" d="M72.992,23.205a4.045,4.045,0,0,0-3.121-.416,4.092,4.092,0,0,0-2.5,1.938L55.053,46.316a1,1,0,0,0-.125.385L54.06,54.56a.994.994,0,0,0,.484.968.97.97,0,0,0,1.07-.06l6.294-4.689a.985.985,0,0,0,.267-.3L74.5,28.888A4.191,4.191,0,0,0,72.992,23.205ZM56.255,52.53l.453-4.1,2.834,1.655Zm4.715-3.9-3.731-2.179,9.888-17.324L70.857,31.3ZM72.8,27.9l-.965,1.691-3.731-2.179.965-1.691A2.143,2.143,0,0,1,70.379,24.7a2.118,2.118,0,0,1,1.635.218,2.162,2.162,0,0,1,1,1.323A2.187,2.187,0,0,1,72.8,27.9Z" transform="translate(-54.054 -22.646)" fill="#4b4b4b"/>
        </g>
      </g>
    </g>
  </g>
</svg>
