<svg xmlns="http://www.w3.org/2000/svg" xmlns:xlink="http://www.w3.org/1999/xlink" width="12" height="12" viewBox="0 0 12 12">
  <defs>
    <clipPath id="clip-path">
      <rect id="Rectangle_64" data-name="Rectangle 64" width="12" height="12" fill="#7d99be" stroke="#7d99be" stroke-width="1"/>
    </clipPath>
  </defs>
  <g id="Mask_Group_28" data-name="Mask Group 28" clip-path="url(#clip-path)">
    <g id="refresh" transform="translate(0 0)">
      <path id="Path_119" data-name="Path 119" d="M1.441,6.553A4.748,4.748,0,0,1,1.406,6,4.575,4.575,0,0,1,9.082,2.618l-.405.413a.36.36,0,0,0-.091.352.368.368,0,0,0,.267.239c.071.014,2.4.763,2.248.734a.356.356,0,0,0,.415-.415c-.014-.071-.529-2.653-.5-2.506a.348.348,0,0,0-.591-.176l-.345.337A6,6,0,0,0,0,6v.014c0,.2.009.351.02.469A.352.352,0,0,0,.3,6.8l.722.144a.352.352,0,0,0,.418-.387Zm0,0" transform="translate(0 0)" fill="#7d99be"/>
      <path id="Path_120" data-name="Path 120" d="M11.7,5.2l-.724-.148a.352.352,0,0,0-.419.387A4.786,4.786,0,0,1,10.594,6,4.569,4.569,0,0,1,2.918,9.375l.405-.405a.36.36,0,0,0,.091-.352.368.368,0,0,0-.267-.239C3.077,8.365.752,7.616.9,7.645a.344.344,0,0,0-.316.1.35.35,0,0,0-.1.316l.5,2.482a.352.352,0,0,0,.246.267.338.338,0,0,0,.345-.091l.338-.337A5.991,5.991,0,0,0,12,6V5.979c0-.156-.006-.309-.019-.461A.351.351,0,0,0,11.7,5.2Zm0,0" transform="translate(0 0)" fill="#7d99be"/>
    </g>
  </g>
</svg>
