<svg xmlns="http://www.w3.org/2000/svg" xmlns:xlink="http://www.w3.org/1999/xlink" width="19" height="19" viewBox="0 0 19 19">
  <defs>
    <clipPath id="clip-path">
      <rect id="Rectangle_42" data-name="Rectangle 42" width="19" height="19" transform="translate(1219 176)" fill="#fff" stroke="#707070" stroke-width="1"/>
    </clipPath>
  </defs>
  <g id="Mask_Group_17" data-name="Mask Group 17" transform="translate(-1219 -176)" clip-path="url(#clip-path)">
    <g id="plus" transform="translate(1219 176)">
      <path id="Path_95" data-name="Path 95" d="M13.656,10.094H5.344a.594.594,0,0,1,0-1.187h8.313a.594.594,0,0,1,0,1.188Zm0,0"/>
      <path id="Path_96" data-name="Path 96" d="M9.5,14.25a.594.594,0,0,1-.594-.594V5.344a.594.594,0,0,1,1.188,0v8.313A.594.594,0,0,1,9.5,14.25Zm0,0"/>
      <path id="Path_97" data-name="Path 97" d="M16.823,19H2.177A2.179,2.179,0,0,1,0,16.823V2.177A2.179,2.179,0,0,1,2.177,0H16.823A2.179,2.179,0,0,1,19,2.177V16.823A2.179,2.179,0,0,1,16.823,19ZM2.177,1.188a.991.991,0,0,0-.99.99V16.823a.991.991,0,0,0,.99.99H16.823a.991.991,0,0,0,.99-.99V2.177a.991.991,0,0,0-.99-.99Zm0,0"/>
    </g>
  </g>
</svg>
