<svg xmlns="http://www.w3.org/2000/svg" xmlns:xlink="http://www.w3.org/1999/xlink" width="19" height="19" viewBox="0 0 19 19">
  <defs>
    <clipPath id="clip-path">
      <rect id="Rectangle_39" data-name="Rectangle 39" width="19" height="19" transform="translate(1429 176)" fill="#fff" stroke="#707070" stroke-width="1"/>
    </clipPath>
  </defs>
  <g id="Mask_Group_19" data-name="Mask Group 19" transform="translate(-1429 -176)" clip-path="url(#clip-path)">
    <g id="delete" transform="translate(1430.784 176)">
      <path id="Path_100" data-name="Path 100" d="M10.341,6.884a.445.445,0,0,0-.445.445v8.41a.445.445,0,0,0,.89,0V7.329A.445.445,0,0,0,10.341,6.884Zm0,0"/>
      <path id="Path_101" data-name="Path 101" d="M5.09,6.884a.445.445,0,0,0-.445.445v8.41a.445.445,0,0,0,.89,0V7.329A.445.445,0,0,0,5.09,6.884Zm0,0"/>
      <path id="Path_102" data-name="Path 102" d="M1.264,5.656V16.619a2.455,2.455,0,0,0,.653,1.693A2.191,2.191,0,0,0,3.506,19h8.419a2.191,2.191,0,0,0,1.59-.687,2.455,2.455,0,0,0,.653-1.693V5.656a1.7,1.7,0,0,0-.436-3.343H11.453V1.758A1.748,1.748,0,0,0,9.691,0H5.74A1.748,1.748,0,0,0,3.978,1.758v.556H1.7a1.7,1.7,0,0,0-.436,3.343ZM11.925,18.11H3.506a1.409,1.409,0,0,1-1.353-1.491V5.7H13.278V16.619a1.409,1.409,0,0,1-1.353,1.491ZM4.868,1.758A.857.857,0,0,1,5.74.89H9.691a.857.857,0,0,1,.872.868v.556h-5.7ZM1.7,3.2H13.731a.8.8,0,0,1,0,1.6H1.7a.8.8,0,0,1,0-1.6Zm0,0"/>
      <path id="Path_103" data-name="Path 103" d="M7.716,6.884a.445.445,0,0,0-.445.445v8.41a.445.445,0,0,0,.89,0V7.329A.445.445,0,0,0,7.716,6.884Zm0,0"/>
    </g>
  </g>
</svg>
