<svg xmlns="http://www.w3.org/2000/svg" xmlns:xlink="http://www.w3.org/1999/xlink" width="19" height="19" viewBox="0 0 19 19">
  <defs>
    <clipPath id="clip-path">
      <rect id="Rectangle_40" data-name="Rectangle 40" width="19" height="19" transform="translate(1324 176)" fill="#fff" stroke="#707070" stroke-width="1"/>
    </clipPath>
  </defs>
  <g id="Mask_Group_18" data-name="Mask Group 18" transform="translate(-1324 -176)" clip-path="url(#clip-path)">
    <g id="edit" transform="translate(1324 176.035)">
      <path id="Path_98" data-name="Path 98" d="M17.536,11.876a.473.473,0,0,0-.473.473v4.2a1.421,1.421,0,0,1-1.42,1.42H2.366a1.421,1.421,0,0,1-1.42-1.42V4.22A1.421,1.421,0,0,1,2.366,2.8h4.2a.473.473,0,1,0,0-.946h-4.2A2.369,2.369,0,0,0,0,4.22V16.551a2.369,2.369,0,0,0,2.366,2.366H15.643a2.369,2.369,0,0,0,2.366-2.366v-4.2a.473.473,0,0,0-.473-.473Zm0,0"/>
      <path id="Path_99" data-name="Path 99" d="M17.822.636a2.129,2.129,0,0,0-3.011,0L6.368,9.078a.473.473,0,0,0-.121.208l-1.11,4.008a.473.473,0,0,0,.582.582l4.008-1.11a.473.473,0,0,0,.208-.121L18.377,4.2a2.132,2.132,0,0,0,0-3.011ZM7.4,9.386l6.909-6.909L16.537,4.7,9.628,11.614Zm-.445.893,1.78,1.78-2.462.682ZM17.708,3.534l-.5.5L14.978,1.807l.5-.5a1.183,1.183,0,0,1,1.673,0l.555.555A1.185,1.185,0,0,1,17.708,3.534Zm0,0"/>
    </g>
  </g>
</svg>
