<svg xmlns="http://www.w3.org/2000/svg" xmlns:xlink="http://www.w3.org/1999/xlink" width="22.875" height="15" viewBox="0 0 22.875 15">
  <defs>
    <clipPath id="clip-path">
      <rect id="Rectangle_77" data-name="Rectangle 77" width="15" height="15" transform="translate(584 378)" fill="#fff" stroke="#707070" stroke-width="1"/>
    </clipPath>
  </defs>
  <g id="Group_349" data-name="Group 349" transform="translate(-630.125 -379)">
    <g id="Mask_Group_31" data-name="Mask Group 31" transform="translate(54 1)" clip-path="url(#clip-path)">
      <g id="take-away" transform="translate(584 378)">
        <path id="Path_134" data-name="Path 134" d="M1.25,6A.25.25,0,0,0,1,6.25v6a.25.25,0,1,0,.5,0v-6A.25.25,0,0,0,1.25,6Zm0,0" fill="#fff"/>
        <path id="Path_135" data-name="Path 135" d="M1.25,13a.25.25,0,0,0-.25.25v.5a.25.25,0,1,0,.5,0v-.5A.25.25,0,0,0,1.25,13Zm0,0" fill="#fff"/>
        <path id="Path_136" data-name="Path 136" d="M14.989,5.2a.253.253,0,0,0-.011-.048v0l-2.25-5A.247.247,0,0,0,12.681.08c-.005-.006-.012-.01-.018-.015A.246.246,0,0,0,12.61.028L12.587.018A.248.248,0,0,0,12.5,0H2.589a.747.747,0,0,0-.7.471L.018,5.157a.238.238,0,0,0-.009.049A.241.241,0,0,0,0,5.25v9A.751.751,0,0,0,.75,15h13.5a.751.751,0,0,0,.75-.75v-9a.245.245,0,0,0-.01-.05ZM14.363,5H10.869L12.513.889ZM2.356.657A.249.249,0,0,1,2.589.5h9.542L10.331,5H.619ZM.5,14.25V5.5h9.75v9H.75a.25.25,0,0,1-.25-.25Zm14,0a.25.25,0,0,1-.25.25h-3.5v-9H14.5Zm0,0" fill="#fff"/>
        <path id="Path_137" data-name="Path 137" d="M4.138,3.75H7.983a1.411,1.411,0,0,0,1.3-.856A1,1,0,0,0,8.363,1.5H4.517a1.411,1.411,0,0,0-1.3.856A1,1,0,0,0,4.138,3.75Zm-.46-1.2A.912.912,0,0,1,4.517,2H8.363a.5.5,0,0,1,.46.7.912.912,0,0,1-.839.553H4.138a.5.5,0,0,1-.46-.7Zm0,0" fill="#fff"/>
      </g>
    </g>
    <line id="Line_27" data-name="Line 27" x1="5.875" transform="translate(630.625 379.5)" fill="none" stroke="#fff" stroke-linecap="round" stroke-width="1"/>
    <line id="Line_28" data-name="Line 28" x1="4" transform="translate(633.5 382.5)" fill="none" stroke="#fff" stroke-linecap="round" stroke-width="1"/>
    <line id="Line_29" data-name="Line 29" x1="3.875" transform="translate(631.625 385.5)" fill="none" stroke="#fff" stroke-linecap="round" stroke-width="1"/>
  </g>
</svg>
