<svg xmlns="http://www.w3.org/2000/svg" xmlns:xlink="http://www.w3.org/1999/xlink" width="15" height="15" viewBox="0 0 15 15">
  <defs>
    <clipPath id="clip-path">
      <rect id="Rectangle_78" data-name="Rectangle 78" width="15" height="15" transform="translate(882 373)" fill="#fff" stroke="#707070" stroke-width="1"/>
    </clipPath>
  </defs>
  <g id="Mask_Group_32" data-name="Mask Group 32" transform="translate(-882 -373)" clip-path="url(#clip-path)">
    <g id="shop_1_" data-name="shop (1)" transform="translate(882 373)">
      <g id="Group_79" data-name="Group 79">
        <g id="Group_78" data-name="Group 78">
          <path id="Path_138" data-name="Path 138" d="M14.311,13.151h-.25V6.633A2.039,2.039,0,0,0,15,4.917a.22.22,0,0,0-.029-.109L13.228,1.756a.691.691,0,0,0-.6-.347H2.371a.691.691,0,0,0-.6.347L.029,4.808A.22.22,0,0,0,0,4.917,2.039,2.039,0,0,0,.939,6.633v6.519H.689a.22.22,0,0,0,0,.439H14.311a.22.22,0,1,0,0-.439ZM.455,5.136h.7a.22.22,0,1,0,0-.439H.6L2.154,1.974a.251.251,0,0,1,.217-.126H12.629a.25.25,0,0,1,.217.126L14.4,4.7h-.561a.22.22,0,1,0,0,.439h.7a1.6,1.6,0,0,1-3.17,0H12.9a.22.22,0,0,0,0-.439H2.1a.22.22,0,0,0,0,.439H3.625a1.6,1.6,0,0,1-3.17,0Zm10.45,0a1.6,1.6,0,0,1-3.17,0Zm-3.64,0a1.6,1.6,0,0,1-3.17,0Zm5.182,8.015H10.068v-.735h2.379Zm0-1.174H10.068V7.955h2.379Zm1.174,1.174h-.735V7.735a.22.22,0,0,0-.22-.22H9.848a.22.22,0,0,0-.22.22v5.417H1.379V6.846A2.038,2.038,0,0,0,3.86,5.837a2.039,2.039,0,0,0,3.64,0,2.039,2.039,0,0,0,3.64,0,2.038,2.038,0,0,0,2.481,1.009Z" fill="#fff"/>
        </g>
      </g>
      <g id="Group_81" data-name="Group 81">
        <g id="Group_80" data-name="Group 80">
          <path id="Path_139" data-name="Path 139" d="M8.674,7.515H2.333a.22.22,0,0,0-.22.22V12.2a.22.22,0,0,0,.22.22H8.674a.22.22,0,0,0,.22-.22V7.735A.22.22,0,0,0,8.674,7.515Zm-.22,4.462h-5.9V7.955h5.9Z" fill="#fff"/>
        </g>
      </g>
    </g>
  </g>
</svg>
